<svg width="20" height="20" viewBox="0 0 20 20" fill="none" xmlns="http://www.w3.org/2000/svg">
<path fill-rule="evenodd" clip-rule="evenodd" d="M0 0H1.25V18.75H20V20H0V0ZM12.5 14.375C12.5 14.5408 12.5658 14.6997 12.6831 14.8169C12.8003 14.9342 12.9592 15 13.125 15H18.125C18.2908 15 18.4497 14.9342 18.5669 14.8169C18.6842 14.6997 18.75 14.5408 18.75 14.375V9.375C18.75 9.20924 18.6842 9.05027 18.5669 8.93306C18.4497 8.81585 18.2908 8.75 18.125 8.75C17.9592 8.75 17.8003 8.81585 17.6831 8.93306C17.5658 9.05027 17.5 9.20924 17.5 9.375V12.625L12.9838 7.10375C12.9285 7.03627 12.8597 6.98111 12.7818 6.94182C12.7039 6.90253 12.6186 6.87998 12.5315 6.87562C12.4444 6.87127 12.3573 6.8852 12.2759 6.91652C12.1945 6.94785 12.1205 6.99587 12.0588 7.0575L8.825 10.2913L4.255 4.0075C4.15503 3.88038 4.00967 3.79696 3.84948 3.77477C3.68929 3.75258 3.52673 3.79334 3.39596 3.8885C3.2652 3.98366 3.17641 4.1258 3.14826 4.28506C3.12011 4.44431 3.15479 4.60828 3.245 4.7425L8.245 11.6175C8.29807 11.6906 8.36636 11.7513 8.44516 11.7955C8.52396 11.8397 8.61141 11.8663 8.70146 11.8734C8.79152 11.8805 8.88205 11.868 8.96682 11.8368C9.05159 11.8056 9.12859 11.7563 9.1925 11.6925L12.4538 8.43L16.8062 13.75H13.125C12.9592 13.75 12.8003 13.8158 12.6831 13.9331C12.5658 14.0503 12.5 14.2092 12.5 14.375Z" fill="#F91717"/>
</svg>
