<svg width="20" height="20" viewBox="0 0 20 20" fill="none" xmlns="http://www.w3.org/2000/svg">
<path fill-rule="evenodd" clip-rule="evenodd" d="M0 0H1.25V18.75H20V20H0V0Z" fill="#00ACAD"/>
<path d="M9.81723 3.9336C9.93444 4.05081 10.0003 4.20978 10.0003 4.37554C10.0003 4.5413 9.93444 4.70027 9.81723 4.81748C9.70002 4.93469 9.54105 5.00054 9.37529 5.00054H5.69404L10.0465 10.3205L13.3078 7.05804C13.3717 6.99419 13.4487 6.94496 13.5335 6.91373C13.6182 6.88251 13.7088 6.87003 13.7988 6.87716C13.8889 6.88428 13.9763 6.91085 14.0551 6.95503C14.1339 6.9992 14.2022 7.05994 14.2553 7.13304L19.2553 14.008C19.3455 14.1423 19.3802 14.3062 19.352 14.4655C19.3239 14.6247 19.2351 14.7669 19.1043 14.862C18.9736 14.9572 18.811 14.998 18.6508 14.9758C18.4906 14.9536 18.3453 14.8702 18.2453 14.743L13.6753 8.45929L10.4415 11.693C10.3798 11.7547 10.3058 11.8027 10.2244 11.834C10.143 11.8653 10.0559 11.8793 9.96879 11.8749C9.88166 11.8706 9.79641 11.848 9.71852 11.8087C9.64063 11.7694 9.57183 11.7143 9.51654 11.6468L5.00029 6.12554V9.37554C5.00029 9.5413 4.93444 9.70027 4.81723 9.81748C4.70002 9.93469 4.54105 10.0005 4.37529 10.0005C4.20953 10.0005 4.05056 9.93469 3.93335 9.81748C3.81614 9.70027 3.75029 9.5413 3.75029 9.37554V4.37554C3.75029 4.20978 3.81614 4.05081 3.93335 3.9336C4.05056 3.81639 4.20953 3.75054 4.37529 3.75054H9.37529C9.54105 3.75054 9.70002 3.81639 9.81723 3.9336Z" fill="#00ACAD"/>
</svg>
