<svg width="16" height="16" viewBox="0 0 16 16" fill="none" xmlns="http://www.w3.org/2000/svg">
<path d="M8 0C6.41775 0 4.87103 0.469192 3.55544 1.34824C2.23985 2.22729 1.21447 3.47672 0.608967 4.93853C0.00346614 6.40034 -0.15496 8.00887 0.153721 9.56072C0.462403 11.1126 1.22433 12.538 2.34315 13.6569C3.46197 14.7757 4.88743 15.5376 6.43928 15.8463C7.99113 16.155 9.59966 15.9965 11.0615 15.391C12.5233 14.7855 13.7727 13.7602 14.6518 12.4446C15.5308 11.129 16 9.58225 16 8C15.9975 5.87903 15.1539 3.84565 13.6541 2.3459C12.1544 0.846145 10.121 0.00249086 8 0ZM14.3976 5.01961H11.2463C10.9033 3.59717 10.2779 2.25821 9.40706 1.08235C10.4881 1.30451 11.5023 1.77619 12.3688 2.45977C13.2352 3.14335 13.93 4.01993 14.3976 5.01961ZM15.0588 8C15.0594 8.6908 14.9581 9.37791 14.7584 10.0392H11.44C11.6638 8.68895 11.6638 7.31105 11.44 5.96078H14.7584C14.9581 6.62209 15.0594 7.3092 15.0588 8ZM8 15.0588C7.98044 15.0589 7.96109 15.0549 7.94323 15.0469C7.92538 15.0389 7.90944 15.0272 7.89647 15.0125C6.88628 13.9247 6.14432 12.5278 5.72549 10.9804H10.2745C9.85569 12.5278 9.11373 13.9247 8.10353 15.0125C8.09057 15.0272 8.07462 15.0389 8.05677 15.0469C8.03891 15.0549 8.01956 15.0589 8 15.0588ZM5.51451 10.0392C5.27295 8.69047 5.27295 7.30953 5.51451 5.96078H10.4855C10.7271 7.30953 10.7271 8.69047 10.4855 10.0392H5.51451ZM0.94118 8C0.940652 7.3092 1.04187 6.62209 1.24157 5.96078H4.56C4.33619 7.31105 4.33619 8.68895 4.56 10.0392H1.24157C1.04187 9.37791 0.940652 8.6908 0.94118 8ZM8 0.941176C8.01956 0.941068 8.03891 0.945141 8.05677 0.953122C8.07462 0.961102 8.09057 0.972807 8.10353 0.987451C9.11373 2.07529 9.85569 3.47216 10.2745 5.01961H5.72549C6.14432 3.47216 6.88628 2.07529 7.89647 0.987451C7.90944 0.972807 7.92538 0.961102 7.94323 0.953122C7.96109 0.945141 7.98044 0.941068 8 0.941176ZM6.59294 1.08235C5.72214 2.25821 5.09667 3.59717 4.75373 5.01961H1.60236C2.07 4.01993 2.76476 3.14335 3.63122 2.45977C4.49769 1.77619 5.51188 1.30451 6.59294 1.08235ZM1.60236 10.9804H4.75373C5.09667 12.4028 5.72214 13.7418 6.59294 14.9176C5.51188 14.6955 4.49769 14.2238 3.63122 13.5402C2.76476 12.8566 2.07 11.9801 1.60236 10.9804ZM9.40706 14.9176C10.2779 13.7418 10.9033 12.4028 11.2463 10.9804H14.3976C13.93 11.9801 13.2352 12.8566 12.3688 13.5402C11.5023 14.2238 10.4881 14.6955 9.40706 14.9176Z" fill="url(#paint0_linear_1_120)"/>
<defs>
<linearGradient id="paint0_linear_1_120" x1="4" y1="1.5" x2="13" y2="14.5" gradientUnits="userSpaceOnUse">
<stop stop-color="#97C72F"/>
<stop offset="1" stop-color="#1CA2CC"/>
</linearGradient>
</defs>
</svg>
