<svg width="18" height="18" viewBox="0 0 18 18" fill="none" xmlns="http://www.w3.org/2000/svg">
<path d="M1 3.69474C1 2.75158 1 2.28 1.18358 1.91958C1.34505 1.60269 1.60269 1.34505 1.91958 1.18358C2.28 1 2.75158 1 3.69474 1H14.3053C15.2484 1 15.72 1 16.0804 1.18358C16.3973 1.34505 16.655 1.60269 16.8164 1.91958C17 2.28 17 2.75158 17 3.69474V14.3053C17 15.2484 17 15.72 16.8164 16.0804C16.655 16.3973 16.3973 16.655 16.0804 16.8164C15.72 17 15.2484 17 14.3053 17H3.69474C2.75158 17 2.28 17 1.91958 16.8164C1.60269 16.655 1.34505 16.3973 1.18358 16.0804C1 15.72 1 15.2484 1 14.3053V3.69474Z" stroke="url(#paint0_linear_1_123)" stroke-width="1.2" stroke-linecap="round"/>
<path d="M14.4737 16.9994L9.42105 4.3678M17 2.68359L1 6.05202M9.42105 11.551C9.42105 13.3682 7.61895 14.6449 6.83326 15.1156C6.72474 15.181 6.60041 15.2156 6.47368 15.2156C6.34696 15.2156 6.22263 15.181 6.11411 15.1156C5.32842 14.6449 3.52632 13.3682 3.52632 11.5501C3.52632 9.76738 4.95453 8.57833 6.47368 8.57833C8.04589 8.57833 9.42105 9.76738 9.42105 11.551Z" stroke="url(#paint1_linear_1_123)" stroke-width="1.2"/>
<path d="M6.47363 11.284C6.60724 11.284 6.71565 11.3926 6.71582 11.5262C6.71582 11.6599 6.60734 11.7684 6.47363 11.7684C6.34006 11.7682 6.23145 11.6598 6.23145 11.5262C6.23161 11.3927 6.34017 11.2842 6.47363 11.284Z" fill="#888888" stroke="url(#paint2_linear_1_123)" stroke-width="1.2"/>
<defs>
<linearGradient id="paint0_linear_1_123" x1="5" y1="2.5" x2="14" y2="15.5" gradientUnits="userSpaceOnUse">
<stop stop-color="#97C72F"/>
<stop offset="1" stop-color="#1CA2CC"/>
</linearGradient>
<linearGradient id="paint1_linear_1_123" x1="5" y1="4.0257" x2="12.7027" y2="16.4608" gradientUnits="userSpaceOnUse">
<stop stop-color="#97C72F"/>
<stop offset="1" stop-color="#1CA2CC"/>
</linearGradient>
<linearGradient id="paint2_linear_1_123" x1="6.05289" y1="10.8423" x2="7.00026" y2="12.2107" gradientUnits="userSpaceOnUse">
<stop stop-color="#97C72F"/>
<stop offset="1" stop-color="#1CA2CC"/>
</linearGradient>
</defs>
</svg>
