<svg width="42" height="30" viewBox="0 0 42 30" fill="none" xmlns="http://www.w3.org/2000/svg">
<path d="M18.1936 10.4477C18.1058 10.1845 18.1261 9.89714 18.25 9.64889C18.374 9.40063 18.5915 9.21177 18.8547 9.12384L20.9477 8.42616C21.105 8.37364 21.2725 8.35927 21.4365 8.38421C21.6004 8.40916 21.7561 8.47271 21.8907 8.56964C22.0253 8.66656 22.1349 8.79409 22.2105 8.94169C22.2861 9.0893 22.3255 9.25276 22.3256 9.4186V16.3953C22.3256 16.6729 22.2153 16.9391 22.0191 17.1353C21.8228 17.3316 21.5566 17.4419 21.2791 17.4419C21.0015 17.4419 20.7353 17.3316 20.5391 17.1353C20.3428 16.9391 20.2326 16.6729 20.2326 16.3953V10.8698L19.5174 11.1087C19.2542 11.1966 18.9669 11.1763 18.7187 11.0523C18.4704 10.9283 18.2815 10.7109 18.1936 10.4477ZM41.1628 28.9535C41.1628 29.231 41.0525 29.4972 40.8563 29.6935C40.66 29.8897 40.3938 30 40.1163 30H1.04651C0.76896 30 0.502775 29.8897 0.306516 29.6935C0.110257 29.4972 0 29.231 0 28.9535C0 28.6759 0.110257 28.4097 0.306516 28.2135C0.502775 28.0172 0.76896 27.907 1.04651 27.907H2.7907V10.814C2.7907 10.1663 3.04796 9.54523 3.5059 9.0873C3.96384 8.62936 4.58494 8.37209 5.23256 8.37209H12.5581V2.44186C12.5581 1.79424 12.8154 1.17314 13.2733 0.715204C13.7313 0.257267 14.3524 0 15 0H26.1628C26.8104 0 27.4315 0.257267 27.8894 0.715204C28.3474 1.17314 28.6047 1.79424 28.6047 2.44186V15.3488H35.9302C36.5779 15.3488 37.199 15.6061 37.6569 16.064C38.1148 16.522 38.3721 17.1431 38.3721 17.7907V27.907H40.1163C40.3938 27.907 40.66 28.0172 40.8563 28.2135C41.0525 28.4097 41.1628 28.6759 41.1628 28.9535ZM28.6047 17.4419V27.907H36.2791V17.7907C36.2791 17.6982 36.2423 17.6095 36.1769 17.544C36.1115 17.4786 36.0228 17.4419 35.9302 17.4419H28.6047ZM14.6512 27.907H26.5116V2.44186C26.5116 2.34934 26.4749 2.26061 26.4095 2.19519C26.344 2.12978 26.2553 2.09302 26.1628 2.09302H15C14.9075 2.09302 14.8188 2.12978 14.7533 2.19519C14.6879 2.26061 14.6512 2.34934 14.6512 2.44186V27.907ZM4.88372 27.907H12.5581V10.4651H5.23256C5.14004 10.4651 5.05131 10.5019 4.98589 10.5673C4.92047 10.6327 4.88372 10.7214 4.88372 10.814V27.907Z" fill="url(#paint0_linear_1_15)"/>
<defs>
<linearGradient id="paint0_linear_1_15" x1="10.2907" y1="2.8125" x2="24.7922" y2="31.5533" gradientUnits="userSpaceOnUse">
<stop stop-color="#97C72F"/>
<stop offset="1" stop-color="#1CA2CC"/>
</linearGradient>
</defs>
</svg>
